<mxfile host="app.diagrams.net" modified="2024-04-09T06:43:22.408Z" agent="Mozilla/5.0 (Windows NT 10.0; Win64; x64; rv:124.0) Gecko/20100101 Firefox/124.0" etag="JdOItNb3zZCBzcLPQSmW" version="24.2.2" type="device">
  <diagram name="Lapa-1" id="FCnR58UEl5PzX6KjhntN">
    <mxGraphModel dx="1274" dy="737" grid="1" gridSize="10" guides="1" tooltips="1" connect="1" arrows="1" fold="1" page="1" pageScale="1" pageWidth="850" pageHeight="1100" math="0" shadow="0">
      <root>
        <mxCell id="0" />
        <mxCell id="1" parent="0" />
        <mxCell id="Qmabm18kxoUuHGqOtzeK-6" value="Lietotajs" style="swimlane;fontStyle=0;childLayout=stackLayout;horizontal=1;startSize=26;fillColor=none;horizontalStack=0;resizeParent=1;resizeParentMax=0;resizeLast=0;collapsible=1;marginBottom=0;whiteSpace=wrap;html=1;" vertex="1" parent="1">
          <mxGeometry x="40" y="80" width="190" height="104" as="geometry" />
        </mxCell>
        <mxCell id="Qmabm18kxoUuHGqOtzeK-7" value="+ id: integer" style="text;strokeColor=none;fillColor=none;align=left;verticalAlign=top;spacingLeft=4;spacingRight=4;overflow=hidden;rotatable=0;points=[[0,0.5],[1,0.5]];portConstraint=eastwest;whiteSpace=wrap;html=1;" vertex="1" parent="Qmabm18kxoUuHGqOtzeK-6">
          <mxGeometry y="26" width="190" height="26" as="geometry" />
        </mxCell>
        <mxCell id="Qmabm18kxoUuHGqOtzeK-8" value="+ lietotajvards: string" style="text;strokeColor=none;fillColor=none;align=left;verticalAlign=top;spacingLeft=4;spacingRight=4;overflow=hidden;rotatable=0;points=[[0,0.5],[1,0.5]];portConstraint=eastwest;whiteSpace=wrap;html=1;" vertex="1" parent="Qmabm18kxoUuHGqOtzeK-6">
          <mxGeometry y="52" width="190" height="26" as="geometry" />
        </mxCell>
        <mxCell id="Qmabm18kxoUuHGqOtzeK-9" value="+ ..." style="text;strokeColor=none;fillColor=none;align=left;verticalAlign=top;spacingLeft=4;spacingRight=4;overflow=hidden;rotatable=0;points=[[0,0.5],[1,0.5]];portConstraint=eastwest;whiteSpace=wrap;html=1;" vertex="1" parent="Qmabm18kxoUuHGqOtzeK-6">
          <mxGeometry y="78" width="190" height="26" as="geometry" />
        </mxCell>
        <mxCell id="Qmabm18kxoUuHGqOtzeK-10" value="Preces" style="swimlane;fontStyle=0;childLayout=stackLayout;horizontal=1;startSize=26;fillColor=none;horizontalStack=0;resizeParent=1;resizeParentMax=0;resizeLast=0;collapsible=1;marginBottom=0;whiteSpace=wrap;html=1;" vertex="1" parent="1">
          <mxGeometry x="280" y="80" width="140" height="104" as="geometry" />
        </mxCell>
        <mxCell id="Qmabm18kxoUuHGqOtzeK-18" value="+ id: integer" style="text;strokeColor=none;fillColor=none;align=left;verticalAlign=top;spacingLeft=4;spacingRight=4;overflow=hidden;rotatable=0;points=[[0,0.5],[1,0.5]];portConstraint=eastwest;whiteSpace=wrap;html=1;" vertex="1" parent="Qmabm18kxoUuHGqOtzeK-10">
          <mxGeometry y="26" width="140" height="26" as="geometry" />
        </mxCell>
        <mxCell id="Qmabm18kxoUuHGqOtzeK-11" value="+ nosaukums: string" style="text;strokeColor=none;fillColor=none;align=left;verticalAlign=top;spacingLeft=4;spacingRight=4;overflow=hidden;rotatable=0;points=[[0,0.5],[1,0.5]];portConstraint=eastwest;whiteSpace=wrap;html=1;" vertex="1" parent="Qmabm18kxoUuHGqOtzeK-10">
          <mxGeometry y="52" width="140" height="26" as="geometry" />
        </mxCell>
        <mxCell id="Qmabm18kxoUuHGqOtzeK-13" value="+ ..." style="text;strokeColor=none;fillColor=none;align=left;verticalAlign=top;spacingLeft=4;spacingRight=4;overflow=hidden;rotatable=0;points=[[0,0.5],[1,0.5]];portConstraint=eastwest;whiteSpace=wrap;html=1;" vertex="1" parent="Qmabm18kxoUuHGqOtzeK-10">
          <mxGeometry y="78" width="140" height="26" as="geometry" />
        </mxCell>
        <mxCell id="Qmabm18kxoUuHGqOtzeK-14" value="Pirkumi" style="swimlane;fontStyle=0;childLayout=stackLayout;horizontal=1;startSize=26;fillColor=none;horizontalStack=0;resizeParent=1;resizeParentMax=0;resizeLast=0;collapsible=1;marginBottom=0;whiteSpace=wrap;html=1;" vertex="1" parent="1">
          <mxGeometry x="170" y="270" width="140" height="104" as="geometry" />
        </mxCell>
        <mxCell id="Qmabm18kxoUuHGqOtzeK-15" value="+ id: integer" style="text;strokeColor=none;fillColor=none;align=left;verticalAlign=top;spacingLeft=4;spacingRight=4;overflow=hidden;rotatable=0;points=[[0,0.5],[1,0.5]];portConstraint=eastwest;whiteSpace=wrap;html=1;" vertex="1" parent="Qmabm18kxoUuHGqOtzeK-14">
          <mxGeometry y="26" width="140" height="26" as="geometry" />
        </mxCell>
        <mxCell id="Qmabm18kxoUuHGqOtzeK-16" value="+ lietotajs: lietotajs.id" style="text;strokeColor=none;fillColor=none;align=left;verticalAlign=top;spacingLeft=4;spacingRight=4;overflow=hidden;rotatable=0;points=[[0,0.5],[1,0.5]];portConstraint=eastwest;whiteSpace=wrap;html=1;" vertex="1" parent="Qmabm18kxoUuHGqOtzeK-14">
          <mxGeometry y="52" width="140" height="26" as="geometry" />
        </mxCell>
        <mxCell id="Qmabm18kxoUuHGqOtzeK-17" value="&lt;div&gt;+ prece: prece.id&lt;/div&gt;&lt;div&gt;&lt;br&gt;&lt;/div&gt;" style="text;strokeColor=none;fillColor=none;align=left;verticalAlign=top;spacingLeft=4;spacingRight=4;overflow=hidden;rotatable=0;points=[[0,0.5],[1,0.5]];portConstraint=eastwest;whiteSpace=wrap;html=1;" vertex="1" parent="Qmabm18kxoUuHGqOtzeK-14">
          <mxGeometry y="78" width="140" height="26" as="geometry" />
        </mxCell>
        <mxCell id="Qmabm18kxoUuHGqOtzeK-19" style="edgeStyle=orthogonalEdgeStyle;rounded=0;orthogonalLoop=1;jettySize=auto;html=1;exitX=0;exitY=0.5;exitDx=0;exitDy=0;entryX=0;entryY=0.5;entryDx=0;entryDy=0;" edge="1" parent="1" source="Qmabm18kxoUuHGqOtzeK-16" target="Qmabm18kxoUuHGqOtzeK-7">
          <mxGeometry relative="1" as="geometry" />
        </mxCell>
        <mxCell id="Qmabm18kxoUuHGqOtzeK-20" style="edgeStyle=orthogonalEdgeStyle;rounded=0;orthogonalLoop=1;jettySize=auto;html=1;exitX=1;exitY=0.5;exitDx=0;exitDy=0;entryX=1;entryY=0.5;entryDx=0;entryDy=0;" edge="1" parent="1" source="Qmabm18kxoUuHGqOtzeK-17" target="Qmabm18kxoUuHGqOtzeK-18">
          <mxGeometry relative="1" as="geometry" />
        </mxCell>
        <mxCell id="Qmabm18kxoUuHGqOtzeK-21" value="1" style="text;html=1;align=center;verticalAlign=middle;resizable=0;points=[];autosize=1;strokeColor=none;fillColor=none;" vertex="1" parent="1">
          <mxGeometry x="420" y="90" width="30" height="30" as="geometry" />
        </mxCell>
        <mxCell id="Qmabm18kxoUuHGqOtzeK-22" value="N" style="text;html=1;align=center;verticalAlign=middle;resizable=0;points=[];autosize=1;strokeColor=none;fillColor=none;" vertex="1" parent="1">
          <mxGeometry x="310" y="330" width="30" height="30" as="geometry" />
        </mxCell>
        <mxCell id="Qmabm18kxoUuHGqOtzeK-24" value="1" style="text;html=1;align=center;verticalAlign=middle;resizable=0;points=[];autosize=1;strokeColor=none;fillColor=none;" vertex="1" parent="1">
          <mxGeometry x="10" y="90" width="30" height="30" as="geometry" />
        </mxCell>
        <mxCell id="Qmabm18kxoUuHGqOtzeK-25" value="N" style="text;html=1;align=center;verticalAlign=middle;resizable=0;points=[];autosize=1;strokeColor=none;fillColor=none;" vertex="1" parent="1">
          <mxGeometry x="140" y="307" width="30" height="30" as="geometry" />
        </mxCell>
        <mxCell id="Qmabm18kxoUuHGqOtzeK-26" value="&lt;div&gt;1:N&lt;/div&gt;&lt;div&gt;N:1&lt;/div&gt;&lt;div&gt;1:1&lt;/div&gt;&lt;div&gt;N:N&lt;br&gt;&lt;/div&gt;" style="text;html=1;align=center;verticalAlign=middle;resizable=0;points=[];autosize=1;strokeColor=none;fillColor=none;" vertex="1" parent="1">
          <mxGeometry x="505" y="165" width="40" height="70" as="geometry" />
        </mxCell>
        <mxCell id="Qmabm18kxoUuHGqOtzeK-28" value="1 ierakstam atbilst N citi ieraksti citā tabulā" style="text;html=1;align=center;verticalAlign=middle;resizable=0;points=[];autosize=1;strokeColor=none;fillColor=none;" vertex="1" parent="1">
          <mxGeometry x="555" y="160" width="250" height="30" as="geometry" />
        </mxCell>
        <mxCell id="Qmabm18kxoUuHGqOtzeK-29" value="N ierakstiem atbilst 1 ieraksts citā tabulā" style="text;html=1;align=center;verticalAlign=middle;resizable=0;points=[];autosize=1;strokeColor=none;fillColor=none;" vertex="1" parent="1">
          <mxGeometry x="560" y="178" width="240" height="30" as="geometry" />
        </mxCell>
        <mxCell id="Qmabm18kxoUuHGqOtzeK-30" value="1 ierakstam atbilst 1 ieraksts citā tabulā" style="text;html=1;align=center;verticalAlign=middle;resizable=0;points=[];autosize=1;strokeColor=none;fillColor=none;" vertex="1" parent="1">
          <mxGeometry x="560" y="197" width="240" height="30" as="geometry" />
        </mxCell>
        <mxCell id="Qmabm18kxoUuHGqOtzeK-31" value="N ierakstiem atbilst N citi ieraksti citā tabulā" style="text;html=1;align=center;verticalAlign=middle;resizable=0;points=[];autosize=1;strokeColor=none;fillColor=none;" vertex="1" parent="1">
          <mxGeometry x="555" y="208" width="260" height="30" as="geometry" />
        </mxCell>
        <mxCell id="Qmabm18kxoUuHGqOtzeK-36" value="Pasniedzējs" style="swimlane;fontStyle=0;childLayout=stackLayout;horizontal=1;startSize=26;fillColor=none;horizontalStack=0;resizeParent=1;resizeParentMax=0;resizeLast=0;collapsible=1;marginBottom=0;whiteSpace=wrap;html=1;" vertex="1" parent="1">
          <mxGeometry y="546" width="140" height="52" as="geometry" />
        </mxCell>
        <mxCell id="Qmabm18kxoUuHGqOtzeK-37" value="+ id: integer" style="text;strokeColor=none;fillColor=none;align=left;verticalAlign=top;spacingLeft=4;spacingRight=4;overflow=hidden;rotatable=0;points=[[0,0.5],[1,0.5]];portConstraint=eastwest;whiteSpace=wrap;html=1;" vertex="1" parent="Qmabm18kxoUuHGqOtzeK-36">
          <mxGeometry y="26" width="140" height="26" as="geometry" />
        </mxCell>
        <mxCell id="Qmabm18kxoUuHGqOtzeK-40" value="Priekšmets" style="swimlane;fontStyle=0;childLayout=stackLayout;horizontal=1;startSize=26;fillColor=none;horizontalStack=0;resizeParent=1;resizeParentMax=0;resizeLast=0;collapsible=1;marginBottom=0;whiteSpace=wrap;html=1;" vertex="1" parent="1">
          <mxGeometry x="365" y="546" width="140" height="52" as="geometry" />
        </mxCell>
        <mxCell id="Qmabm18kxoUuHGqOtzeK-48" value="+ id: integer" style="text;strokeColor=none;fillColor=none;align=left;verticalAlign=top;spacingLeft=4;spacingRight=4;overflow=hidden;rotatable=0;points=[[0,0.5],[1,0.5]];portConstraint=eastwest;whiteSpace=wrap;html=1;" vertex="1" parent="Qmabm18kxoUuHGqOtzeK-40">
          <mxGeometry y="26" width="140" height="26" as="geometry" />
        </mxCell>
        <mxCell id="Qmabm18kxoUuHGqOtzeK-44" value="pasniedzēja_priekšmets" style="swimlane;fontStyle=0;childLayout=stackLayout;horizontal=1;startSize=26;fillColor=none;horizontalStack=0;resizeParent=1;resizeParentMax=0;resizeLast=0;collapsible=1;marginBottom=0;whiteSpace=wrap;html=1;" vertex="1" parent="1">
          <mxGeometry x="180" y="720" width="140" height="78" as="geometry" />
        </mxCell>
        <mxCell id="Qmabm18kxoUuHGqOtzeK-45" value="+ tab1id: Tabula1.id" style="text;strokeColor=none;fillColor=none;align=left;verticalAlign=top;spacingLeft=4;spacingRight=4;overflow=hidden;rotatable=0;points=[[0,0.5],[1,0.5]];portConstraint=eastwest;whiteSpace=wrap;html=1;" vertex="1" parent="Qmabm18kxoUuHGqOtzeK-44">
          <mxGeometry y="26" width="140" height="26" as="geometry" />
        </mxCell>
        <mxCell id="Qmabm18kxoUuHGqOtzeK-49" value="+ tab2id: Tabula2.id" style="text;strokeColor=none;fillColor=none;align=left;verticalAlign=top;spacingLeft=4;spacingRight=4;overflow=hidden;rotatable=0;points=[[0,0.5],[1,0.5]];portConstraint=eastwest;whiteSpace=wrap;html=1;" vertex="1" parent="Qmabm18kxoUuHGqOtzeK-44">
          <mxGeometry y="52" width="140" height="26" as="geometry" />
        </mxCell>
        <mxCell id="Qmabm18kxoUuHGqOtzeK-50" style="edgeStyle=orthogonalEdgeStyle;rounded=0;orthogonalLoop=1;jettySize=auto;html=1;exitX=0;exitY=0.5;exitDx=0;exitDy=0;entryX=1;entryY=0.5;entryDx=0;entryDy=0;" edge="1" parent="1" source="Qmabm18kxoUuHGqOtzeK-45" target="Qmabm18kxoUuHGqOtzeK-37">
          <mxGeometry relative="1" as="geometry" />
        </mxCell>
        <mxCell id="Qmabm18kxoUuHGqOtzeK-51" style="edgeStyle=orthogonalEdgeStyle;rounded=0;orthogonalLoop=1;jettySize=auto;html=1;exitX=1;exitY=0.5;exitDx=0;exitDy=0;entryX=0;entryY=0.5;entryDx=0;entryDy=0;" edge="1" parent="1" source="Qmabm18kxoUuHGqOtzeK-49" target="Qmabm18kxoUuHGqOtzeK-48">
          <mxGeometry relative="1" as="geometry" />
        </mxCell>
        <mxCell id="Qmabm18kxoUuHGqOtzeK-59" value="N:N piemērs - vienam priekšmetam var būt vairāki pasniedzēji un&lt;br&gt;pasniedzējam var būt vairāki priekšmeti." style="text;html=1;align=center;verticalAlign=middle;resizable=0;points=[];autosize=1;strokeColor=none;fillColor=none;" vertex="1" parent="1">
          <mxGeometry x="70" y="500" width="360" height="40" as="geometry" />
        </mxCell>
      </root>
    </mxGraphModel>
  </diagram>
</mxfile>
